<svg width="17" height="18" viewBox="0 0 17 18" fill="none" xmlns="http://www.w3.org/2000/svg">
<path d="M8.49787 6.51898C6.93707 6.51898 5.66333 7.79271 5.66333 9.35352C5.66333 10.9143 6.93707 12.1881 8.49787 12.1881C10.0587 12.1881 11.3324 10.9143 11.3324 9.35352C11.3324 7.79271 10.0587 6.51898 8.49787 6.51898ZM16.9994 9.35352C16.9994 8.17972 17.01 7.01656 16.9441 5.84489C16.8782 4.48398 16.5677 3.27616 15.5725 2.28099C14.5752 1.28369 13.3695 0.975355 12.0086 0.909435C10.8348 0.843516 9.67167 0.854148 8.5 0.854148C7.32621 0.854148 6.16305 0.843516 4.99138 0.909435C3.63046 0.975355 2.42264 1.28581 1.42747 2.28099C0.430173 3.27829 0.121839 4.48398 0.0559198 5.84489C-0.00999972 7.01869 0.000632496 8.18185 0.000632496 9.35352C0.000632496 10.5252 -0.00999972 11.6905 0.0559198 12.8621C0.121839 14.2231 0.432299 15.4309 1.42747 16.426C2.42477 17.4233 3.63046 17.7317 4.99138 17.7976C6.16517 17.8635 7.32833 17.8529 8.5 17.8529C9.67379 17.8529 10.837 17.8635 12.0086 17.7976C13.3695 17.7317 14.5774 17.4212 15.5725 16.426C16.5698 15.4287 16.8782 14.2231 16.9441 12.8621C17.0121 11.6905 16.9994 10.5273 16.9994 9.35352ZM8.49787 13.7148C6.08437 13.7148 4.13655 11.767 4.13655 9.35352C4.13655 6.94001 6.08437 4.99219 8.49787 4.99219C10.9114 4.99219 12.8592 6.94001 12.8592 9.35352C12.8592 11.767 10.9114 13.7148 8.49787 13.7148ZM13.0378 5.83214C12.4743 5.83214 12.0193 5.37708 12.0193 4.81357C12.0193 4.25007 12.4743 3.79501 13.0378 3.79501C13.6013 3.79501 14.0564 4.25007 14.0564 4.81357C14.0565 4.94738 14.0303 5.07991 13.9792 5.20356C13.9281 5.32721 13.853 5.43956 13.7584 5.53418C13.6638 5.6288 13.5515 5.70382 13.4278 5.75494C13.3041 5.80607 13.1716 5.8323 13.0378 5.83214Z" fill="white"/>
</svg>
