<svg viewBox="0 0 54 50" fill="none" xmlns="http://www.w3.org/2000/svg">
<path d="M42.0913 48.5006L42.0892 48.5006C41.932 48.5012 41.7787 48.4524 41.6508 48.3612C41.6502 48.3608 41.6496 48.3604 41.649 48.3599L27.5863 38.1647L26.9993 37.7392L26.4124 38.1647L12.3456 48.3628L12.3455 48.3629C12.2167 48.4564 12.0615 48.5064 11.9024 48.5058C11.7433 48.5052 11.5885 48.4541 11.4604 48.3597C11.3323 48.2654 11.2375 48.1327 11.1897 47.9809C11.1419 47.8292 11.1437 47.6662 11.1947 47.5154L11.1949 47.5148L16.6811 31.265L16.9231 30.5482L16.2992 30.1204L2.08049 20.3696L2.08006 20.3693C1.94807 20.2789 1.84844 20.1486 1.79575 19.9976C1.74306 19.8465 1.74005 19.6825 1.78718 19.5297C1.8343 19.3768 1.92909 19.2429 2.05768 19.1477C2.18598 19.0528 2.34121 19.0012 2.50081 19.0006H20.0409H20.7674L20.9919 18.3096L26.2857 2.0182L26.2859 2.01759C26.3347 1.86685 26.4301 1.73546 26.5583 1.64228C26.6865 1.54909 26.8409 1.4989 26.9993 1.4989C27.1578 1.4989 27.3122 1.54909 27.4403 1.64228C27.5685 1.73546 27.6639 1.86684 27.7128 2.01758L27.7129 2.01811L33.0067 18.315L33.2311 19.006H33.9578H51.4993H51.4998C51.66 19.006 51.816 19.0572 51.945 19.1522C52.074 19.2472 52.1691 19.381 52.2166 19.534L53.1717 19.238L52.2166 19.534C52.264 19.687 52.2612 19.8512 52.2085 20.0025C52.1559 20.1538 52.0562 20.2843 51.924 20.3748L51.924 20.3748L37.6997 30.1201L37.0754 30.5479L37.3174 31.2649L42.8004 47.5103L42.8005 47.5106C42.8386 47.6233 42.8493 47.7434 42.8317 47.8611C42.8142 47.9788 42.7689 48.0906 42.6996 48.1873C42.6303 48.2841 42.539 48.3629 42.4332 48.4174C42.3275 48.4718 42.2102 48.5003 42.0913 48.5006Z" stroke="#112211" stroke-width="2"/>
</svg>
