<svg width="20" height="14" viewBox="0 0 20 14" fill="none" xmlns="http://www.w3.org/2000/svg">
<path d="M19.5829 2.42142C19.4696 2.01745 19.249 1.65171 18.9445 1.36309C18.6314 1.06559 18.2477 0.852787 17.8295 0.744757C16.2645 0.332257 9.99454 0.332257 9.99454 0.332257C7.38065 0.302518 4.7674 0.433319 2.16954 0.723924C1.75136 0.839935 1.36834 1.0575 1.05454 1.35726C0.746204 1.65392 0.522871 2.01976 0.406204 2.42059C0.125949 3.93038 -0.0102189 5.46338 -0.000462243 6.99892C-0.0104622 8.53309 0.125371 10.0656 0.406204 11.5773C0.520371 11.9764 0.742871 12.3406 1.05204 12.6348C1.3612 12.9289 1.7462 13.1414 2.16954 13.2539C3.75537 13.6656 9.99454 13.6656 9.99454 13.6656C12.6118 13.6954 15.2283 13.5646 17.8295 13.2739C18.2477 13.1659 18.6314 12.9531 18.9445 12.6556C19.2489 12.367 19.4693 12.0012 19.582 11.5973C19.8696 10.0881 20.0094 8.55442 19.9995 7.01809C20.0212 5.47526 19.8815 3.93439 19.5829 2.42059V2.42142ZM8.0012 9.85226V4.14642L13.2179 6.99976L8.0012 9.85226Z" fill="white"/>
</svg>
